<svg width="70" height="70" viewBox="0 0 70 70" fill="none" xmlns="http://www.w3.org/2000/svg">
<path d="M22.2989 24.2354L22.2989 24.2354C21.7923 23.8513 21.6763 23.1355 22.0369 22.6059C23.673 20.2035 25.5155 18.353 27.737 17.1004C29.9562 15.8491 32.5839 15.1774 35.8177 15.1774C39.1572 15.1774 42.6254 16.4839 45.255 18.6566C47.8824 20.8275 49.6352 23.8291 49.6352 27.2097C49.6352 29.4776 49.0253 31.1619 48.1257 32.4753C47.2206 33.7969 46.0045 34.7688 44.7529 35.5802C44.1408 35.977 43.5274 36.331 42.9388 36.6707L42.8985 36.6939C42.3032 37.0375 41.7273 37.3707 41.2299 37.7099C40.2638 38.3685 39.4145 39.1649 39.4145 40.3153V41.2097C39.4145 41.8688 38.8801 42.4032 38.221 42.4032H31.7789C31.1198 42.4032 30.5853 41.8688 30.5853 41.2097V39.9876C30.5853 35.36 33.9829 33.457 36.882 31.8332C36.9364 31.8027 36.9906 31.7724 37.0446 31.7421C38.2723 31.0538 39.3271 30.442 40.0683 29.7542C40.8346 29.043 41.2974 28.2216 41.2974 27.1315C41.2974 25.6813 40.372 24.5338 39.2037 23.7748C38.0316 23.0133 36.5331 22.5821 35.1828 22.5821C33.4556 22.5821 32.1589 22.9945 31.0154 23.7795C29.8938 24.5494 28.9438 25.6631 27.8837 27.0011C27.4795 27.5112 26.7428 27.605 26.2256 27.2129L22.2989 24.2354ZM0.5 35C0.5 15.9531 15.9476 0.5 35 0.5C54.0524 0.5 69.5 15.9531 69.5 35C69.5 54.0581 54.0525 69.5 35 69.5C15.9475 69.5 0.5 54.0581 0.5 35ZM6.27419 35C6.27419 50.8807 19.1246 63.7258 35 63.7258C50.8807 63.7258 63.7258 50.8751 63.7258 35C63.7258 19.1249 50.8696 6.27419 35 6.27419C19.1251 6.27419 6.27419 19.1299 6.27419 35ZM40.4274 50.8064C40.4274 53.7987 37.9923 56.2339 35 56.2339C32.0077 56.2339 29.5726 53.7987 29.5726 50.8064C29.5726 47.8142 32.0077 45.379 35 45.379C37.9923 45.379 40.4274 47.8142 40.4274 50.8064Z" fill="#011936" stroke="white"/>
</svg>
