<svg width="70" height="70" viewBox="0 0 70 70" fill="none" xmlns="http://www.w3.org/2000/svg">
<path fill-rule="evenodd" clip-rule="evenodd" d="M66.395 31.5H66.5C66.5 14.105 52.395 0 35 0C17.605 0 3.5 14.105 3.5 31.5H3.605C1.435 34.055 0 37.8 0 42C0 48.09 2.94 53.2 7 55.16V56C7 61.81 11.69 66.5 17.5 66.5H28C28 68.425 29.575 70 31.5 70H38.5C40.425 70 42 68.425 42 66.5V59.5C42 57.575 40.425 56 38.5 56H31.5C29.575 56 28 57.575 28 59.5H17.5C15.575 59.5 14 57.925 14 56C15.925 56 17.5 54.425 17.5 52.5V31.5C17.5 29.575 15.925 28 14 28H10.78C12.495 16.135 22.645 7 35 7C47.355 7 57.505 16.135 59.22 28H56C54.075 28 52.5 29.575 52.5 31.5V52.5C52.5 54.425 54.075 56 56 56H59.5C65.31 56 70 49.735 70 42C70 37.8 68.565 34.055 66.395 31.5Z" fill="white"/>
</svg>
