<svg width="28" height="28" viewBox="0 0 28 28" fill="none" xmlns="http://www.w3.org/2000/svg">
<path d="M16.1895 3.73301L18.3187 7.99145C18.6091 8.58426 19.3833 9.15285 20.0366 9.26173L23.8958 9.90291C26.3638 10.3142 26.9445 12.1047 25.1661 13.871L22.1658 16.8713C21.6577 17.3794 21.3795 18.3593 21.5367 19.061L22.3957 22.775C23.0732 25.7148 21.5126 26.852 18.9115 25.3155L15.2943 23.1742C14.641 22.7871 13.5643 22.7871 12.8989 23.1742L9.28161 25.3155C6.69267 26.852 5.11995 25.7027 5.79743 22.775L6.65637 19.061C6.81365 18.3593 6.5354 17.3794 6.02729 16.8713L3.02702 13.871C1.26074 12.1047 1.82934 10.3142 4.2973 9.90291L8.15651 9.26173C8.79769 9.15285 9.57195 8.58426 9.8623 7.99145L11.9916 3.73301C13.1529 1.42233 15.0402 1.42233 16.1895 3.73301Z" stroke="#058C42" stroke-width="3.5038" stroke-linecap="round" stroke-linejoin="round"/>
</svg>
