<svg width="33" height="33" viewBox="0 0 33 33" fill="none" xmlns="http://www.w3.org/2000/svg">
<path d="M24.1443 28.8753C23.9244 28.8762 23.7075 28.8243 23.5118 28.724L16.4993 25.0528L9.48681 28.724C9.2591 28.8438 9.00236 28.8972 8.74579 28.8783C8.48921 28.8594 8.24309 28.7689 8.0354 28.6171C7.8277 28.4652 7.66678 28.2582 7.5709 28.0194C7.47503 27.7807 7.44806 27.5198 7.49306 27.2665L8.86806 19.5253L3.20306 14.0253C3.02631 13.8489 2.90093 13.6277 2.84037 13.3855C2.77981 13.1432 2.78636 12.8891 2.85931 12.6503C2.939 12.4059 3.0856 12.1888 3.28246 12.0235C3.47933 11.8582 3.71858 11.7515 3.97306 11.7153L11.8106 10.574L15.2618 3.52028C15.3744 3.28781 15.5502 3.09175 15.7691 2.95457C15.9879 2.81739 16.241 2.74463 16.4993 2.74463C16.7576 2.74463 17.0107 2.81739 17.2296 2.95457C17.4484 3.09175 17.6242 3.28781 17.7368 3.52028L21.2293 10.5603L29.0668 11.7015C29.3213 11.7377 29.5605 11.8445 29.7574 12.0097C29.9543 12.175 30.1009 12.3922 30.1806 12.6365C30.2535 12.8753 30.2601 13.1295 30.1995 13.3717C30.1389 13.614 30.0136 13.8352 29.8368 14.0115L24.1718 19.5115L25.5468 27.2528C25.5959 27.5106 25.5702 27.777 25.4727 28.0206C25.3753 28.2643 25.2101 28.475 24.9968 28.6278C24.7478 28.8023 24.448 28.8893 24.1443 28.8753Z" fill="#058C42"/>
</svg>
