<svg width="60" height="54" viewBox="0 0 60 54" fill="none" xmlns="http://www.w3.org/2000/svg">
<path d="M46.4447 2V15.8889M13.1113 2V15.8889" stroke="#011936" stroke-width="3" stroke-linecap="round" stroke-linejoin="round"/>
<path d="M53.3889 4.77783V8.9445M53.3889 8.9445V13.1112M53.3889 8.9445H57.5556M6.16667 4.77783V8.9445M6.16667 8.9445V13.1112M6.16667 8.9445H2" stroke="#011936" stroke-width="3" stroke-linecap="round" stroke-linejoin="round"/>
<path d="M46.4447 8.94434H13.1113" stroke="#011936" stroke-width="3" stroke-linecap="round" stroke-linejoin="round"/>
<path d="M16.6572 46.4447H42.8988C46.3363 46.4447 48.0549 46.4447 48.7657 45.6041C50.3788 43.6966 47.2885 41.1755 46.161 39.9047C44.8904 38.473 43.961 38.1113 42.0832 38.1113H17.4727C15.5948 38.1113 14.6655 38.473 13.395 39.9047C12.2673 41.1755 9.17724 43.6966 10.7903 45.6041C11.5009 46.4447 13.2197 46.4447 16.6572 46.4447Z" stroke="#011936" stroke-width="3" stroke-linecap="round" stroke-linejoin="round"/>
<path d="M21.4443 15.8887V38.1109M38.111 15.8887V38.1109" stroke="#011936" stroke-width="3" stroke-linecap="round" stroke-linejoin="round"/>
<path d="M40.8887 46.4443V51.9999M18.6665 46.4443V51.9999" stroke="#011936" stroke-width="3" stroke-linecap="round" stroke-linejoin="round"/>
</svg>
