<svg width="65" height="65" viewBox="0 0 65 65" fill="none" xmlns="http://www.w3.org/2000/svg">
<path d="M24.375 58.5C24.375 62.088 21.645 65 18.2812 65C14.9175 65 12.1875 62.088 12.1875 58.5C12.1875 54.912 14.9175 52 18.2812 52C21.645 52 24.375 54.912 24.375 58.5Z" fill="#011936"/>
<path d="M65 58.5C65 62.088 62.27 65 58.9062 65C55.5425 65 52.8125 62.088 52.8125 58.5C52.8125 54.912 55.5425 52 58.9062 52C62.27 52 65 54.912 65 58.5Z" fill="#011936"/>
<path d="M65 30.3333V4.33333H16.25C16.25 1.94133 14.43 0 12.1875 0H0V4.33333H8.12499L11.1759 32.2313C9.31531 33.8216 8.12499 36.2613 8.12499 39C8.12499 43.7883 11.7609 47.6666 16.25 47.6666H65V43.3333H16.25C14.0075 43.3333 12.1875 41.392 12.1875 39C12.1875 38.987 12.1875 38.9696 12.1875 38.9566L65 30.3333Z" fill="#011936"/>
</svg>
