<svg width="63" height="54" viewBox="0 0 63 54" fill="none" xmlns="http://www.w3.org/2000/svg">
<path d="M45.3126 2C36.091 2 31.5456 11.0909 31.5456 11.0909C31.5456 11.0909 27.0001 2 17.7786 2C10.2843 2 4.34964 8.26986 4.27294 15.7514C4.11669 31.2811 16.5925 42.3251 30.2672 51.6064C30.6442 51.8628 31.0896 52 31.5456 52C32.0015 52 32.447 51.8628 32.824 51.6064C46.4972 42.3251 58.973 31.2811 58.8182 15.7514C58.7415 8.26986 52.8069 2 45.3126 2Z" stroke="#011936" stroke-width="3" stroke-linecap="round" stroke-linejoin="round"/>
<path d="M2 26.9996H17.909L24.7272 13.3633L31.5453 36.0905L38.3635 22.4542L42.9089 31.545H61.0907" stroke="#011936" stroke-width="3" stroke-linecap="round" stroke-linejoin="round"/>
</svg>
