<svg width="50" height="50" viewBox="0 0 50 50" fill="none" xmlns="http://www.w3.org/2000/svg">
<path d="M0 32.1755H1.63428C10.5719 32.1854 17.8145 39.4281 17.8244 48.3647V50H0V32.1755ZM14.4535 46.7314C13.6754 40.8955 9.10536 36.3276 3.33462 35.5602L3.26855 35.553V46.7314L14.4535 46.7314ZM43.2406 50H14.1201V46.7314H43.2232C44.6114 46.704 45.7297 45.5871 45.7595 44.2022V44.1994C45.7401 42.8091 44.6145 41.6881 43.2244 41.6761H13.5971V38.4075H43.2318C46.42 38.4319 48.9986 41.0075 49.028 44.1922V44.2212C48.9939 47.3975 46.4294 49.9635 43.257 50H43.2536L43.2406 50ZM6.23207 19.1558V4.3559L19.9186 9.82528V10.9301C19.9036 14.1737 17.5961 16.874 14.5338 17.4948L14.4906 17.5021L6.23207 19.1558ZM9.50063 9.18676V15.1682L13.8587 14.2966C15.0973 14.0438 16.0809 13.1564 16.4665 11.996L16.4735 11.9716L9.50063 9.18676ZM34.9081 12.5642H18.2821V9.29565H34.9081V12.5642ZM6.31484 7.28232L4.24482 1.02851L7.34775 0L9.41786 6.2538L6.31484 7.28232ZM5.29946 34.165L2.10937 33.4546L6.27128 14.715L9.46137 15.4253L5.29946 34.165Z" fill="#011936"/>
</svg>
