<svg width="128" height="38" viewBox="0 0 128 38" fill="none" xmlns="http://www.w3.org/2000/svg">
<path d="M47.2159 14.5455V18.1818H36.7045V14.5455H47.2159ZM39.0909 10.3636H43.9318V26.6364C43.9318 27.0833 44 27.4318 44.1364 27.6818C44.2727 27.9242 44.4621 28.0947 44.7045 28.1932C44.9545 28.2917 45.2424 28.3409 45.5682 28.3409C45.7955 28.3409 46.0227 28.322 46.25 28.2841C46.4773 28.2386 46.6515 28.2045 46.7727 28.1818L47.5341 31.7841C47.2917 31.8598 46.9508 31.947 46.5114 32.0455C46.072 32.1515 45.5379 32.2159 44.9091 32.2386C43.7424 32.2841 42.7197 32.1288 41.8409 31.7727C40.9697 31.4167 40.2917 30.8636 39.8068 30.1136C39.322 29.3636 39.0833 28.4167 39.0909 27.2727V10.3636ZM55.3466 32.3295C54.233 32.3295 53.2405 32.1364 52.3693 31.75C51.4981 31.3561 50.8087 30.7765 50.3011 30.0114C49.8011 29.2386 49.5511 28.2765 49.5511 27.125C49.5511 26.1553 49.7292 25.3409 50.0852 24.6818C50.4413 24.0227 50.9261 23.4924 51.5398 23.0909C52.1534 22.6894 52.8504 22.3864 53.6307 22.1818C54.4186 21.9773 55.2443 21.8333 56.108 21.75C57.1231 21.6439 57.9413 21.5455 58.5625 21.4545C59.1837 21.3561 59.6345 21.2121 59.9148 21.0227C60.1951 20.8333 60.3352 20.553 60.3352 20.1818V20.1136C60.3352 19.3939 60.108 18.8371 59.6534 18.4432C59.2064 18.0492 58.5701 17.8523 57.7443 17.8523C56.8731 17.8523 56.1799 18.0455 55.6648 18.4318C55.1496 18.8106 54.8087 19.2879 54.642 19.8636L50.1648 19.5C50.392 18.4394 50.839 17.5227 51.5057 16.75C52.1723 15.9697 53.0322 15.3712 54.0852 14.9545C55.1458 14.5303 56.3731 14.3182 57.767 14.3182C58.7367 14.3182 59.6648 14.4318 60.5511 14.6591C61.4451 14.8864 62.2367 15.2386 62.9261 15.7159C63.6231 16.1932 64.1723 16.8068 64.5739 17.5568C64.9754 18.2992 65.1761 19.1894 65.1761 20.2273V32H60.5852V29.5795H60.4489C60.1686 30.125 59.7936 30.6061 59.3239 31.0227C58.8542 31.4318 58.2898 31.7538 57.6307 31.9886C56.9716 32.2159 56.2102 32.3295 55.3466 32.3295ZM56.733 28.9886C57.4451 28.9886 58.0739 28.8485 58.6193 28.5682C59.1648 28.2803 59.5928 27.8939 59.9034 27.4091C60.214 26.9242 60.3693 26.375 60.3693 25.7614V23.9091C60.2178 24.0076 60.0095 24.0985 59.7443 24.1818C59.4867 24.2576 59.1951 24.3295 58.8693 24.3977C58.5436 24.4583 58.2178 24.5152 57.892 24.5682C57.5663 24.6136 57.2708 24.6553 57.0057 24.6932C56.4375 24.7765 55.9413 24.9091 55.517 25.0909C55.0928 25.2727 54.7633 25.5189 54.5284 25.8295C54.2936 26.1326 54.1761 26.5114 54.1761 26.9659C54.1761 27.625 54.4148 28.1288 54.892 28.4773C55.3769 28.8182 55.9905 28.9886 56.733 28.9886ZM73.7727 8.72727V32H68.9318V8.72727H73.7727ZM77.6506 32V14.5455H82.4915V32H77.6506ZM80.0824 12.2955C79.3627 12.2955 78.7453 12.0568 78.2301 11.5795C77.7225 11.0947 77.4688 10.5152 77.4688 9.84091C77.4688 9.17424 77.7225 8.60227 78.2301 8.125C78.7453 7.64015 79.3627 7.39773 80.0824 7.39773C80.8021 7.39773 81.4157 7.64015 81.9233 8.125C82.4384 8.60227 82.696 9.17424 82.696 9.84091C82.696 10.5152 82.4384 11.0947 81.9233 11.5795C81.4157 12.0568 80.8021 12.2955 80.0824 12.2955ZM95.6534 14.5455V18.1818H85.142V14.5455H95.6534ZM87.5284 10.3636H92.3693V26.6364C92.3693 27.0833 92.4375 27.4318 92.5739 27.6818C92.7102 27.9242 92.8996 28.0947 93.142 28.1932C93.392 28.2917 93.6799 28.3409 94.0057 28.3409C94.233 28.3409 94.4602 28.322 94.6875 28.2841C94.9148 28.2386 95.089 28.2045 95.2102 28.1818L95.9716 31.7841C95.7292 31.8598 95.3883 31.947 94.9489 32.0455C94.5095 32.1515 93.9754 32.2159 93.3466 32.2386C92.1799 32.2841 91.1572 32.1288 90.2784 31.7727C89.4072 31.4167 88.7292 30.8636 88.2443 30.1136C87.7595 29.3636 87.5208 28.4167 87.5284 27.2727V10.3636ZM106.574 32.3409C104.778 32.3409 103.233 31.9773 101.938 31.25C100.65 30.5152 99.6572 29.4773 98.9602 28.1364C98.2633 26.7879 97.9148 25.1932 97.9148 23.3523C97.9148 21.5568 98.2633 19.9811 98.9602 18.625C99.6572 17.2689 100.638 16.2121 101.903 15.4545C103.176 14.697 104.669 14.3182 106.381 14.3182C107.532 14.3182 108.604 14.5038 109.597 14.875C110.597 15.2386 111.468 15.7879 112.21 16.5227C112.96 17.2576 113.544 18.1818 113.96 19.2955C114.377 20.4015 114.585 21.697 114.585 23.1818V24.5114H99.8466V21.5114H110.028C110.028 20.8144 109.877 20.197 109.574 19.6591C109.271 19.1212 108.85 18.7008 108.312 18.3977C107.782 18.0871 107.165 17.9318 106.46 17.9318C105.725 17.9318 105.074 18.1023 104.506 18.4432C103.945 18.7765 103.506 19.2273 103.188 19.7955C102.869 20.3561 102.706 20.9811 102.699 21.6705V24.5227C102.699 25.3864 102.858 26.1326 103.176 26.7614C103.502 27.3902 103.96 27.875 104.551 28.2159C105.142 28.5568 105.843 28.7273 106.653 28.7273C107.191 28.7273 107.684 28.6515 108.131 28.5C108.578 28.3485 108.96 28.1212 109.278 27.8182C109.597 27.5152 109.839 27.1439 110.006 26.7045L114.483 27C114.256 28.0758 113.79 29.0152 113.085 29.8182C112.388 30.6136 111.487 31.2348 110.381 31.6818C109.282 32.1212 108.013 32.3409 106.574 32.3409ZM104.528 12.2955L106.938 7.125H111.415L107.949 12.2955H104.528Z" fill="#5F708A"/>
<path d="M30.5578 7.65293C28.2204 7.6871 26.2998 9.59398 26.252 11.9314C26.2178 13.5923 27.1063 15.048 28.4391 15.8135V23.5094C28.4391 27.4257 25.0081 30.6174 20.7843 30.6174C16.6834 30.6174 13.3208 27.6034 13.1363 23.8374C18.1119 22.8122 21.871 18.397 21.871 13.1207V2.49958C21.871 1.72043 21.3174 1.0438 20.5519 0.893433L16.2529 0.0322637C15.3644 -0.145438 14.5032 0.428675 14.3255 1.31718L14.1068 2.39023C13.9291 3.27874 14.5032 4.1399 15.3917 4.31761L17.4899 4.73452V13.0318C17.4899 16.6474 14.6057 19.641 10.9902 19.6751C7.34044 19.7093 4.36736 16.7567 4.36736 13.1138V4.74136L6.4656 4.32444C7.35411 4.14674 7.92823 3.28557 7.75052 2.39706L7.53865 1.32402C7.36095 0.43551 6.49978 -0.138603 5.61127 0.0390984L1.31909 0.886598C0.553609 1.0438 0 1.71359 0 2.49958V13.1207C0 18.4039 3.76591 22.8259 8.75522 23.8374C8.93292 30.016 14.2571 34.9916 20.7774 34.9916C27.4071 34.9916 32.8065 29.8383 32.8065 23.5094V15.8135C34.1119 15.0549 34.9935 13.6469 34.9935 12.0271C34.9935 9.58714 32.9978 7.61876 30.5578 7.65293ZM30.6194 13.1207C30.0179 13.1207 29.5258 12.6286 29.5258 12.0271C29.5258 11.4257 30.0179 10.9336 30.6194 10.9336C31.2208 10.9336 31.7129 11.4257 31.7129 12.0271C31.7129 12.6286 31.2208 13.1207 30.6194 13.1207Z" fill="#00D499"/>
</svg>
