<svg width="70" height="50" viewBox="0 0 70 50" fill="none" xmlns="http://www.w3.org/2000/svg">
<path d="M12.1365 25.7269C13.7637 25.7269 15.3161 26.0471 16.7341 26.628L21.1125 14.9439V7.74339H16.6561V4.5828H28.7294V7.74339H24.273L24.2731 13.6535H48.2616V7.61688H55.8786C58.3383 7.61329 60.3314 5.62028 60.335 3.16086V0H63.4955V3.16045C63.49 7.36497 60.083 10.772 55.879 10.7774H51.4221L51.4221 15.0457L54.1965 26.1558C55.2154 25.8773 56.2878 25.728 57.3948 25.7269H57.3955H57.3955C64.0983 25.7269 69.5321 31.1604 69.5321 37.8633C69.5321 44.5662 64.0984 50 57.3955 50C50.6927 50 45.259 44.5662 45.259 37.8634C45.2638 33.4056 47.6689 29.5103 51.2513 27.4002L49.1381 18.9333L35.5783 37.9266H30.6889L22.7902 19.4794L19.5119 28.2242C22.4065 30.4423 24.2731 33.9348 24.2731 37.8634C24.2731 44.5663 18.8394 50 12.1365 50C5.43375 50 0 44.5662 0 37.8633C0.00719765 31.1634 5.43661 25.7339 12.1358 25.7268H12.1365L12.1365 25.7269ZM15.6241 29.5901C14.5519 29.1376 13.3734 28.8874 12.1365 28.8874C7.17925 28.8874 3.16052 32.9061 3.16052 37.8635C3.16595 42.8185 7.18143 46.8341 12.136 46.8393H12.1365C17.0938 46.8393 21.1126 42.8207 21.1126 37.8633C21.1126 35.3089 20.0455 33.0037 18.3328 31.3692L15.1327 39.9052L12.1744 38.7958L15.6241 29.5901ZM25.0865 16.8141L32.7717 34.766H33.9505L46.7673 16.8141H25.0865ZM54.3297 39.7344L52.0609 30.6439C49.8517 32.279 48.4195 34.9039 48.4195 37.8634C48.4249 42.8184 52.4404 46.834 57.395 46.8393H57.3955C62.3528 46.8393 66.3715 42.8206 66.3715 37.8633C66.3715 32.9059 62.3528 28.8874 57.3955 28.8874C56.5521 28.8874 55.7359 29.0037 54.962 29.2212L57.3955 38.9665L54.3297 39.7344Z" fill="#011936"/>
<path d="M12.1365 25.7269C13.7637 25.7269 15.3161 26.0471 16.7341 26.628L21.1125 14.9439V7.74339H16.6561V4.5828H28.7294V7.74339H24.273L24.2731 13.6535H48.2616V7.61688H55.8786C58.3383 7.61329 60.3314 5.62028 60.335 3.16086V0H63.4955V3.16045C63.49 7.36497 60.083 10.772 55.879 10.7774H51.4221L51.4221 15.0457L54.1965 26.1558C55.2154 25.8773 56.2878 25.728 57.3948 25.7269H57.3955H57.3955C64.0983 25.7269 69.5321 31.1604 69.5321 37.8633C69.5321 44.5662 64.0984 50 57.3955 50C50.6927 50 45.259 44.5662 45.259 37.8634C45.2638 33.4056 47.6689 29.5103 51.2513 27.4002L49.1381 18.9333L35.5783 37.9266H30.6889L22.7902 19.4794L19.5119 28.2242C22.4065 30.4423 24.2731 33.9348 24.2731 37.8634C24.2731 44.5663 18.8394 50 12.1365 50C5.43375 50 0 44.5662 0 37.8633C0.00719765 31.1634 5.43661 25.7339 12.1358 25.7268H12.1365L12.1365 25.7269ZM15.6241 29.5901C14.5519 29.1376 13.3734 28.8874 12.1365 28.8874C7.17925 28.8874 3.16052 32.9061 3.16052 37.8635C3.16595 42.8185 7.18143 46.8341 12.136 46.8393H12.1365C17.0938 46.8393 21.1126 42.8207 21.1126 37.8633C21.1126 35.3089 20.0455 33.0037 18.3328 31.3692L15.1327 39.9052L12.1744 38.7958L15.6241 29.5901ZM25.0865 16.8141L32.7717 34.766H33.9505L46.7673 16.8141H25.0865ZM54.3297 39.7344L52.0609 30.6439C49.8517 32.279 48.4195 34.9039 48.4195 37.8634C48.4249 42.8184 52.4404 46.834 57.395 46.8393H57.3955C62.3528 46.8393 66.3715 42.8206 66.3715 37.8633C66.3715 32.9059 62.3528 28.8874 57.3955 28.8874C56.5521 28.8874 55.7359 29.0037 54.962 29.2212L57.3955 38.9665L54.3297 39.7344Z" stroke="black"/>
</svg>
